<svg xmlns="http://www.w3.org/2000/svg" width="83.289" height="82.179" viewBox="0 0 83.289 82.179"><defs><style>.a{fill:none;stroke:#fff;stroke-linecap:round;stroke-linejoin:round;stroke-miterlimit:10;stroke-width:3px;}.b{fill:#fff;}</style></defs><g transform="translate(1.464 1.5)"><g transform="translate(0 0)"><g transform="translate(0 0.084)"><path class="a" d="M226.189,151.168c-.686,2.358-1.629,3.987-3.172,4.458a3.726,3.726,0,0,1-1.072.129c-.043.171-.171.429-.257.729a102.432,102.432,0,0,1-4.758,11.7c-1.458,2.786-2.529,4.8-4.716,6.816a18.51,18.51,0,0,1-7.631,4.158,18.908,18.908,0,0,1-4.716.729h-2.958a20.428,20.428,0,0,1-4.716-.729A18.768,18.768,0,0,1,184.563,175c-2.186-2.015-3.258-4.03-4.716-6.816a105.971,105.971,0,0,1-4.758-11.7,5.129,5.129,0,0,1-.257-.729,4.177,4.177,0,0,1-1.286-.214c-2.786-1.029-3.472-5.273-4.244-10.331-.9-5.959.043-7.031.557-7.416a3.2,3.2,0,0,1,2.358-.514c-.386-3.3-.814-6.6-1.2-9.9a21.26,21.26,0,0,1,1.029-9.517,24.161,24.161,0,0,1,13.589-14.49,32.788,32.788,0,0,1,22.42-1.115" transform="translate(-168.928 -100.795)"/><path class="a" d="M202.064,141.569a7.138,7.138,0,0,1-2.915-.729c-2.958-1.372-4.758-4.33-7.416-6.087a8.129,8.129,0,0,0-3.515-1.286,7.652,7.652,0,0,0-6,2.486c-2.315,2.486-2.229,5.959-2.058,11.317.086,2.272.257,2.7.557,7.974.214,4.244.257,6.473-.943,7.073a1.856,1.856,0,0,1-1.886-.214c-.6-.429-.729-1.115-1.115-4.758-.086-.6-.129-1.157-.171-1.586" transform="translate(-173.311 -119.447)"/></g><g transform="translate(34.197)"><path class="a" d="M252.472,136.31a23.068,23.068,0,0,1,19.291-35.71" transform="translate(-248.7 -100.6)"/><path class="a" d="M299.365,114.9a23.743,23.743,0,0,1,3.687,4.33A23.054,23.054,0,0,1,269.7,150.138" transform="translate(-260.698 -108.77)"/><circle class="a" cx="16.29" cy="16.29" r="16.29" transform="translate(1.701 14.492) rotate(-23.06)"/></g></g><circle class="b" cx="1.5" cy="1.5" r="1.5" transform="translate(57.561 26.707)"/><circle class="b" cx="1.5" cy="1.5" r="1.5" transform="translate(54.26 32.237)"/><circle class="b" cx="1.5" cy="1.5" r="1.5" transform="translate(61.762 31.123)"/><circle class="b" cx="1.5" cy="1.5" r="1.5" transform="translate(64.677 17.491)"/><circle class="b" cx="1.5" cy="1.5" r="1.5" transform="translate(64.034 23.707)"/><circle class="b" cx="1.5" cy="1.5" r="1.5" transform="translate(60.262 13.118)"/><circle class="b" cx="1.5" cy="1.5" r="1.5" transform="translate(51.774 23.707)"/><circle class="b" cx="1.5" cy="1.5" r="1.5" transform="translate(45.429 21.177)"/><circle class="b" cx="1.5" cy="1.5" r="1.5" transform="translate(47.873 28.894)"/><circle class="b" cx="1.5" cy="1.5" r="1.5" transform="translate(58.633 20.406)"/><circle class="b" cx="1.5" cy="1.5" r="1.5" transform="translate(47.615 14.618)"/><circle class="b" cx="1.5" cy="1.5" r="1.5" transform="translate(53.96 10.117)"/><circle class="b" cx="1.5" cy="1.5" r="1.5" transform="translate(54.26 16.376)"/></g></svg>