<svg xmlns="http://www.w3.org/2000/svg" width="85.423" height="64.224" viewBox="0 0 85.423 64.224"><defs><style>.a{fill:#fff;}</style></defs><g transform="translate(0)"><path class="a" d="M225.424,132.912c0-5.3,0-14.156-2.441-20.955,2.406-4.393,1.151-9.623,1.081-9.832a1.75,1.75,0,0,0-1.708-1.325,16.12,16.12,0,0,0-9.693,3.731c-8.473-2.545-22.8-3.731-29.951-3.731s-21.478,1.185-29.951,3.731a16.12,16.12,0,0,0-9.693-3.731,1.789,1.789,0,0,0-1.708,1.325c-.07.209-1.325,5.439,1.081,9.832C140,118.791,140,127.613,140,132.912s0,14.156,2.441,20.955c-2.406,4.393-1.151,9.623-1.081,9.832a1.75,1.75,0,0,0,1.708,1.325,16.12,16.12,0,0,0,9.693-3.731c8.473,2.545,22.8,3.731,29.951,3.731,7.113,0,21.478-1.185,29.951-3.731a16.12,16.12,0,0,0,9.693,3.731,1.789,1.789,0,0,0,1.708-1.325c.07-.209,1.325-5.439-1.081-9.832C225.424,147.068,225.424,138.212,225.424,132.912Zm-79.531,22.14a1.815,1.815,0,0,0,.174-1.639c-2.51-6.276-2.51-15.167-2.51-20.467s0-14.191,2.51-20.467a1.826,1.826,0,0,0-.174-1.639,10.045,10.045,0,0,1-1.29-6.346,12.465,12.465,0,0,1,6.52,3.277,1.741,1.741,0,0,0,1.813.418c7.915-2.65,22.489-3.87,29.811-3.87s21.9,1.22,29.811,3.87a1.832,1.832,0,0,0,1.813-.418,12.465,12.465,0,0,1,6.52-3.277,10.324,10.324,0,0,1-1.29,6.346,1.815,1.815,0,0,0-.174,1.639c2.51,6.276,2.51,15.167,2.51,20.467s0,14.191-2.51,20.467a1.827,1.827,0,0,0,.174,1.639,10.045,10.045,0,0,1,1.29,6.346,12.465,12.465,0,0,1-6.52-3.277,1.741,1.741,0,0,0-1.813-.418c-7.915,2.65-22.489,3.87-29.811,3.87s-21.9-1.22-29.811-3.87a1.446,1.446,0,0,0-.558-.1,1.769,1.769,0,0,0-1.255.523,12.465,12.465,0,0,1-6.52,3.277A9.783,9.783,0,0,1,145.893,155.053Z" transform="translate(-140 -100.8)"/><path class="a" d="M337.462,128.792a1.29,1.29,0,0,0-1.116.488,29.157,29.157,0,0,0-4.149,9.414,1.226,1.226,0,0,0,2.371.628,31.6,31.6,0,0,1,2.58-6.694,46.812,46.812,0,0,1,2.894,26.15,53.947,53.947,0,0,1-2.754,10.321c-3.452-8.577-4.707-16.876-3.731-24.651a1.248,1.248,0,1,0-2.476-.314c-1.116,9.031.593,18.689,5.056,28.626a1.235,1.235,0,0,0,2.231.035,51.513,51.513,0,0,0,4.079-13.563c1.22-7.427,1.534-18.619-4.079-29.811a1.008,1.008,0,0,0-.907-.628Zm0,0" transform="translate(-264.242 -119.029)"/><g transform="translate(18.254 26.062)"><g transform="translate(0 0)"><path class="a" d="M193.38,181.564c-.139-2.545.767-5.021,3.7-5.021a11.213,11.213,0,0,1,5.823,2.231,15.483,15.483,0,0,1,4.568,4.707c.907,1.395,1.639,2.859,3.173,3.7,2.58,1.43,5.962.7,8.229-.976,3-2.231,4.393-5.892,5.683-9.275.244-.628-.767-.907-1.011-.279-1.534,4.01-3.487,8.961-8.159,10.042a5.478,5.478,0,0,1-6.137-2.336,28.14,28.14,0,0,0-3.347-4.463c-2.3-2.266-5.892-4.568-9.275-4.323-3.243.244-4.428,3.173-4.254,6.067a.507.507,0,0,0,1.011-.07Z" transform="translate(-192.352 -175.549)"/></g></g><g transform="translate(21.24 19.551)"><path class="a" d="M225.457,156.953c-3.033,1.674-7.008,3.173-9,6.137-2.266,3.347-1.046,7.531-.941,11.262a16.554,16.554,0,0,1-4.6,12.029,4.623,4.623,0,0,1-6.869.209A6.158,6.158,0,0,1,202.1,180.7c.139-.662-.872-.941-1.011-.279a7.31,7.31,0,0,0,4.428,8.3c4.254,1.674,7.462-2.51,9.135-5.892a17.621,17.621,0,0,0,1.778-5.962c.314-2.545-.174-5.021-.279-7.566-.139-3.173.628-5.823,3.312-7.775a60.471,60.471,0,0,1,6.52-3.731c.593-.279.07-1.185-.523-.837Z" transform="translate(-200.917 -156.874)"/></g><g transform="translate(27.972 37.799)"><g transform="translate(0)"><path class="a" d="M220.739,210.252c2.929-.279,5.962,1.708,8.4,3.1a53.741,53.741,0,0,1,6.694,4.533c1.325,1.046,2.894,2.964,4.777,2.894,1.708-.1,2.65-1.743,3.277-3.1.279-.593-.628-1.151-.907-.523-.593,1.22-1.255,2.685-2.824,2.406-1.36-.244-2.3-1.36-3.347-2.2A52.468,52.468,0,0,0,232,213.913a54.518,54.518,0,0,0-5.579-3.138c-1.813-.872-3.626-1.743-5.718-1.534a.506.506,0,0,0,.035,1.011Z" transform="translate(-220.225 -209.21)"/></g></g><g transform="translate(14.97 31.998)"><g transform="translate(0 0)"><path class="a" d="M183.933,197.393c4.219-6.067,14.226-3.731,20.048-1.743,5.858,1.987,11.3,6.381,17.782,5.3.662-.1.384-1.116-.279-1.011-4.149.7-7.915-1.151-11.541-2.894a44.537,44.537,0,0,0-10.007-3.591c-5.648-1.22-13.145-1.987-16.91,3.417-.384.558.523,1.081.907.523Z" transform="translate(-182.934 -192.571)"/></g></g><g transform="translate(33.547 15.816)"><g transform="translate(0)"><path class="a" d="M236.592,147.221c2.72.907,5.718,1.151,8.263,2.58a14.778,14.778,0,0,1,5.3,5.753,50.638,50.638,0,0,1,2.894,7.113c.7,1.918,1.778,3.626,3.905,4.079.662.139.941-.872.279-1.011-3.068-.7-3.487-4.637-4.463-7.113a24.329,24.329,0,0,0-3.243-6,13.669,13.669,0,0,0-4.812-4.114c-2.476-1.22-5.23-1.5-7.845-2.336a.542.542,0,0,0-.279,1.046Z" transform="translate(-236.214 -146.162)"/></g></g></g></svg>