<svg xmlns="http://www.w3.org/2000/svg" width="74.757" height="75.978" viewBox="0 0 74.757 75.978"><defs><style>.a{fill:none;stroke:#fff;stroke-linecap:round;stroke-linejoin:round;stroke-miterlimit:10;stroke-width:3px;}</style></defs><g transform="translate(2.033 1.504)"><g transform="translate(0.204 4.056)"><path class="a" d="M222.9,150.96l6.367,8.111a2.711,2.711,0,0,0,3.812.446l30.742-24.131a2.711,2.711,0,0,0,.446-3.812l-6.489-8.274" transform="translate(-203.596 -119.123)"/><path class="a" d="M191.606,147.189,196.8,153.8a4.309,4.309,0,0,1-.689,6.043l-19.346,15.533a3.734,3.734,0,0,0-.892,4.907,3.591,3.591,0,0,0,5.232.852l61.4-42.585a8.838,8.838,0,0,0,1.906-12.735L234.272,113" transform="translate(-175.304 -113)"/><line class="a" x1="8.233" y1="10.464" transform="translate(50.249 7.138)"/><line class="a" x1="8.233" y1="10.504" transform="translate(46.274 10.22)"/><line class="a" x1="8.233" y1="10.504" transform="translate(42.299 13.343)"/><line class="a" x1="8.233" y1="10.504" transform="translate(38.325 16.466)"/><line class="a" x1="8.233" y1="10.504" transform="translate(34.391 19.589)"/><line class="a" x1="8.233" y1="10.464" transform="translate(30.416 22.712)"/><line class="a" x1="8.233" y1="10.504" transform="translate(26.442 25.794)"/><line class="a" x1="8.233" y1="10.504" transform="translate(22.467 28.917)"/></g><path class="a" d="M181.741,170.141a5.015,5.015,0,0,0,.689-3.528c-.081-1.1-.284-2.271-.487-3.488-.73-4.542-1.744-10.707,3.731-16.02,4.542-4.38,10.058-3.934,14.073-3.65" transform="translate(-178.7 -126.948)"/><path class="a" d="M225.861,116.119a11.094,11.094,0,0,0-11.478,1.217c-3.893,2.961-3.691,7.868-6.651,11.4-5.678,6.814-14.966-.73-21.171,5.272-4.786,4.623-2.271,10.018-1.825,15.7a9.381,9.381,0,0,1-1.906,7.1c-1.987,2.231-6.449,2.555-8.03-.365" transform="translate(-174.8 -110.157)"/><path class="a" d="M277.161,104.784a18.251,18.251,0,0,0-6.814-1.744,18.847,18.847,0,0,0-9.247,1.744" transform="translate(-226.099 -102.999)"/><path class="a" d="M239.665,129.8a5.39,5.39,0,0,1-6.165,1.744" transform="translate(-209.693 -118.93)"/></g></svg>