<svg xmlns="http://www.w3.org/2000/svg" width="92.84" height="76.284" viewBox="0 0 92.84 76.284"><defs><style>.a{fill:none;stroke:#fff;stroke-linecap:round;stroke-linejoin:round;stroke-miterlimit:10;stroke-width:3px;}</style></defs><g transform="translate(1.96 1.521)"><path class="a" d="M163.9,113.3a27.294,27.294,0,0,1,15.8,1.358,33.8,33.8,0,0,1,7.607,4.347,32.25,32.25,0,0,1,11.863,16.481,29.07,29.07,0,0,1,1,4.89s11.591,12.768,15.349,18.473a8.285,8.285,0,0,1-1.539,10.776l-17.025-13.9c-3.441-1.947-6.837-3.894-10.278-5.8" transform="translate(-163.9 -112.724)"/><path class="a" d="M221.386,216.792l-2.173.181c-3.984,0-13.9-1.811-20.013-2.988a16.4,16.4,0,0,1-8.558-4.618L168.23,186.094a20.487,20.487,0,0,0-4.03-3.894" transform="translate(-164.064 -150.743)"/><path class="a" d="M318.009,238.6c3.713-.045,8.6-1.087,11.093.317a8.13,8.13,0,0,1,3.8,4.437c.317.906.362,1.63-.362,1.63L315.7,246.433" transform="translate(-246.968 -181.379)"/><path class="a" d="M314.6,225.236H318c2.083-.045,4.3-.045,6.429-.091,1.268,0,2.536-.045,3.668-.045a7.488,7.488,0,0,1,2.988.589l.951.408a6.245,6.245,0,0,1,3.441,3.351l.136.408a1.849,1.849,0,0,1-1.766,2.49h-4.483" transform="translate(-246.366 -174.219)"/><path class="a" d="M328.093,217.931s2.943-4.166-2.083-5.614a9.165,9.165,0,0,0-2.49-.317H314.6" transform="translate(-246.366 -167.05)"/><g transform="translate(37.219 11.573)"><path class="a" d="M249.2,152.1a21.116,21.116,0,0,1,15.711,8.15c4.03,5.071,4.935,11.636,5.162,17.93.226,6.339-.634,13.221,2.536,19.017,2.219,4.03,5.977,6.928,9.644,9.735" transform="translate(-247.796 -145.845)"/><path class="a" d="M295.7,163a25.8,25.8,0,0,1,5.3,11.772c.906,4.754.317,9.282.181,14.036-.136,5.071,1.268,9.916,5.66,12.859" transform="translate(-273.242 -151.81)"/><path class="a" d="M246.1,138.745a32.36,32.36,0,0,1,12.27.272c2.49.543,8.739,1.947,13.9,6.792,8.739,8.15,8.241,20.239,8.1,22.232" transform="translate(-246.1 -138.285)"/><path class="a" d="M261,164.9a13.476,13.476,0,0,1,6.656,5.886,14.188,14.188,0,0,1,1.132,10.731" transform="translate(-254.254 -152.849)"/></g></g></svg>