<svg xmlns="http://www.w3.org/2000/svg" width="147" height="37.754" viewBox="0 0 147 37.754"><defs><style>.a{fill:gray;}.b{fill:#0085c0;}.c{fill:#5bc5f2;}.d{fill:#c8d400;}</style></defs><g transform="translate(0.283 30.758)"><path class="a" d="M21.166,194.164v1.864H20V190.91h2.191a1.569,1.569,0,0,1,1.537,1.59,1.511,1.511,0,0,1-1.566,1.664Zm.854-1.017a.577.577,0,0,0,.549-.624.565.565,0,0,0-.549-.61h-.854v1.232h.854Z" transform="translate(-20 -189.114)"/><path class="a" d="M47.9,194.269a13.326,13.326,0,0,1,1.166,1.768H47.792a17.567,17.567,0,0,0-1.025-1.581c-.178-.253-.261-.334-.49-.334h-.162v1.915H44.95V190.92h2.093a1.491,1.491,0,0,1,1.612,1.59c0,1.047-.632,1.434-1.093,1.434A1.027,1.027,0,0,1,47.9,194.269Zm-.942-1.115a.577.577,0,0,0,.549-.624.565.565,0,0,0-.549-.61H46.1v1.232h.854Z" transform="translate(-40.369 -189.122)"/><path class="a" d="M72.229,195.751a2.64,2.64,0,1,1,2.644-2.622A2.5,2.5,0,0,1,72.229,195.751Zm1.478-2.622a1.492,1.492,0,1,0-2.971,0,1.489,1.489,0,1,0,2.971,0Z" transform="translate(-60.468 -188.755)"/><path class="a" d="M104.836,196.027H103.67V190.91H106.8v1h-1.961v1h1.8v.981h-1.8Z" transform="translate(-88.307 -189.114)"/><path class="a" d="M125.63,196.027V190.91H126.8v5.117Z" transform="translate(-106.234 -189.114)"/><path class="a" d="M137.433,194.309a4.178,4.178,0,0,0,1.678.424c.468,0,.749-.1.81-.454.066-.386-.49-.52-1.091-.705l-.283-.1a1.491,1.491,0,0,1-1.188-1.456c0-.891.734-1.544,2.049-1.544a3.542,3.542,0,0,1,1.493.364v.988a4.6,4.6,0,0,0-1.5-.342c-.6,0-.854.23-.861.52,0,0-.015.283.371.4.09.029.178.066.268.1,1.129.364,1.99.676,1.922,1.768-.1,1.151-.891,1.485-1.99,1.485a3.9,3.9,0,0,1-1.678-.417Z" transform="translate(-115.811 -188.755)"/><path class="a" d="M161.613,194.309a4.178,4.178,0,0,0,1.678.424c.468,0,.749-.1.81-.454.066-.386-.49-.52-1.091-.705l-.283-.1a1.491,1.491,0,0,1-1.188-1.456c0-.891.734-1.544,2.049-1.544a3.542,3.542,0,0,1,1.493.364v.988a4.6,4.6,0,0,0-1.5-.342c-.6,0-.854.23-.861.52,0,0-.015.283.371.4.09.029.178.066.268.1,1.129.364,1.99.676,1.922,1.768-.1,1.151-.891,1.485-1.99,1.485a3.9,3.9,0,0,1-1.678-.417Z" transform="translate(-135.551 -188.755)"/><path class="a" d="M187.06,196.027V190.91h1.166v5.117Z" transform="translate(-156.385 -189.114)"/><path class="a" d="M201.279,195.751a2.64,2.64,0,1,1,2.644-2.622A2.5,2.5,0,0,1,201.279,195.751Zm1.478-2.622a1.492,1.492,0,1,0-2.971,0,1.489,1.489,0,1,0,2.971,0Z" transform="translate(-165.822 -188.755)"/><path class="a" d="M232.71,196.027V190.91h1.151a16.854,16.854,0,0,1,1.73,2.866V190.91h1.166v5.117h-1.122a20.424,20.424,0,0,0-1.752-3.066v3.066Z" transform="translate(-193.653 -189.114)"/><path class="a" d="M262.215,196.027c-.127-.439-.253-.883-.393-1.344h-1.59c-.134.461-.261.905-.393,1.344H258.68a33.634,33.634,0,0,1,1.834-5.117h1.025a33.488,33.488,0,0,1,1.834,5.117Zm-1.693-2.279h1.017c-.156-.476-.319-1.115-.512-1.581C260.839,192.634,260.669,193.273,260.522,193.749Z" transform="translate(-214.854 -189.114)"/><path class="a" d="M288.16,196.027V190.91h1.166v5.117Z" transform="translate(-238.921 -189.114)"/><path class="a" d="M299.963,194.309a4.178,4.178,0,0,0,1.678.424c.468,0,.749-.1.81-.454.066-.386-.49-.52-1.091-.705l-.283-.1a1.491,1.491,0,0,1-1.188-1.456c0-.891.734-1.544,2.049-1.544a3.542,3.542,0,0,1,1.493.364v.988a4.6,4.6,0,0,0-1.5-.342c-.6,0-.854.23-.861.52,0,0-.015.283.371.4.09.029.178.066.268.1,1.129.364,1.99.676,1.923,1.768-.1,1.151-.891,1.485-1.99,1.485a3.894,3.894,0,0,1-1.678-.417Z" transform="translate(-248.497 -188.755)"/><path class="a" d="M334.01,196.027V190.91H335.9a2.37,2.37,0,0,1,2.4,2.569,2.339,2.339,0,0,1-2.4,2.547H334.01Zm1.6-1a1.557,1.557,0,0,0,0-3.11h-.439v3.112h.439Z" transform="translate(-276.352 -189.114)"/><path class="a" d="M362.985,196.027c-.127-.439-.253-.883-.393-1.344H361c-.134.461-.261.905-.393,1.344H359.45a33.637,33.637,0,0,1,1.834-5.117h1.025a33.494,33.494,0,0,1,1.834,5.117Zm-1.693-2.279h1.017c-.156-.476-.32-1.115-.512-1.581C361.611,192.634,361.44,193.273,361.292,193.749Z" transform="translate(-297.121 -189.114)"/><path class="a" d="M396.293,194.309a4.178,4.178,0,0,0,1.678.424c.468,0,.749-.1.81-.454.066-.386-.49-.52-1.091-.705l-.283-.1a1.491,1.491,0,0,1-1.188-1.456c0-.891.734-1.544,2.049-1.544a3.542,3.542,0,0,1,1.493.364v.988a4.6,4.6,0,0,0-1.5-.342c-.6,0-.854.23-.861.52,0,0-.015.283.371.4.09.029.178.066.268.1,1.129.364,1.99.676,1.922,1.768-.1,1.151-.891,1.485-1.99,1.485a3.9,3.9,0,0,1-1.678-.417Z" transform="translate(-327.139 -188.755)"/><path class="a" d="M422.475,196.027c-.127-.439-.253-.883-.393-1.344h-1.59c-.134.461-.261.905-.393,1.344H418.94a33.627,33.627,0,0,1,1.834-5.117H421.8a33.494,33.494,0,0,1,1.834,5.117Zm-1.693-2.279H421.8c-.156-.476-.319-1.115-.512-1.581C421.1,192.634,420.93,193.273,420.782,193.749Z" transform="translate(-345.687 -189.114)"/><path class="a" d="M447.61,185.889v-2.964h1.159v2.83c0,1.337.72,1.293.958,1.293.268,0,.951.044.951-1.293v-2.83h1.166v2.964c0,2.124-1.493,2.235-2.117,2.235S447.61,188.014,447.61,185.889Zm2.31-3.52H449.1l.5-1.239h1Z" transform="translate(-369.093 -181.13)"/><path class="a" d="M477.09,196.027V190.91h1.886a2.37,2.37,0,0,1,2.4,2.569,2.339,2.339,0,0,1-2.4,2.547H477.09Zm1.6-1a1.557,1.557,0,0,0,0-3.11h-.439v3.112h.439Z" transform="translate(-393.16 -189.114)"/><path class="a" d="M506.766,194.647a.332.332,0,0,0,.378.378h1.976v1h-2.235c-.883-.029-1.278-.29-1.285-1.137V190.91h3.52v1h-2.354v1h2.146v.981h-2.146Z" transform="translate(-416.435 -189.114)"/></g><g transform="translate(60.632 10.292)"><path class="b" d="M352,98.813c0,.132,0,.466,1.153.821,2.4.777,4.192,1.265,4.06,3.816-.222,2.795-2.284,3.327-4.792,3.327a9.007,9.007,0,0,1-3.549-.777v-2.506a10.625,10.625,0,0,0,3.593.777c1.043,0,1.575-.354,1.575-.865,0-.6-1-.733-2.2-1.109l-.555-.156a3.394,3.394,0,0,1-2.618-3.327c0-1.664,1.4-3.283,4.414-3.283a9.008,9.008,0,0,1,3.549.777v2.55a10.032,10.032,0,0,0-3.461-.755C352.088,98.1,352,98.569,352,98.813Z" transform="translate(-348.668 -90.782)"/><path class="b" d="M401.84,84.619v-2.44h1.6V79.8l3.305-.955v3.327h2.13v2.44h-2.13v4.614a.917.917,0,0,0,1.043,1.065h1.109V93h-1.441c-2.795,0-4.016-.711-4.016-3.417V84.617h-1.6Z" transform="translate(-392.077 -77.164)"/><path class="b" d="M455.036,107.96c-1.485,0-4.016-.643-4.016-5.1V96.98h3.461v5.767c0,2.174.643,2.618,1.752,2.618a4.418,4.418,0,0,0,1.686-.555V96.98h3.327v7.431c0,1.021.51.977,1.441.6v2.262c-1.021.555-3.615,1.353-4.37-.643A4.472,4.472,0,0,1,455.036,107.96Z" transform="translate(-432.226 -91.965)"/><path class="b" d="M526.5,85.665c-1.487,0-5.037-.977-5.037-5.745a5.321,5.321,0,0,1,5.1-5.5,6.013,6.013,0,0,1,2.529.555v-5.3h3.327V82.116c0,1.021.51.977,1.441.6v2.262c-1.021.555-3.615,1.353-4.37-.643A3.782,3.782,0,0,1,526.5,85.665Zm.643-2.729a3.129,3.129,0,0,0,1.952-.621V77.523a4.079,4.079,0,0,0-1.774-.466,2.971,2.971,0,0,0-.178,5.879Z" transform="translate(-489.732 -69.67)"/><path class="b" d="M600.294,70.88c1.419,0,1.73.755,1.73,1.708s-.4,1.686-1.73,1.686c-1.353,0-1.754-.733-1.754-1.686S598.874,70.88,600.294,70.88Zm-1.642,15.53V75.672h3.305V86.41Z" transform="translate(-552.659 -70.658)"/><path class="b" d="M634.345,95.515c2.685,0,5.857,1.353,5.857,5.613,0,3.749-2.573,5.635-5.835,5.635a5.628,5.628,0,1,1-.022-11.248Zm.022,2.662a2.991,2.991,0,0,0,0,5.924c1.419,0,2.55-1.175,2.55-2.995A2.683,2.683,0,0,0,634.367,98.178Z" transform="translate(-577.126 -90.767)"/></g><g transform="translate(0 10.332)"><path class="b" d="M19.635,85.643H18.46V69.89h1.309v5.723a5.7,5.7,0,0,1,3.1-.955,5.076,5.076,0,0,1,5.191,5.457c0,4.837-3.371,5.745-5.125,5.745a4.816,4.816,0,0,1-3.173-1.331Zm.134-2.462a4.442,4.442,0,0,0,3.173,1.4c1.309,0,3.838-.689,3.838-4.458a3.892,3.892,0,0,0-3.9-4.17,6.287,6.287,0,0,0-3.1.931v6.3Z" transform="translate(-18.46 -69.89)"/><path class="b" d="M86.821,74c.621,0,.821.31.821.777a.714.714,0,0,1-.821.777A.734.734,0,0,1,86,74.777C86,74.31,86.2,74,86.821,74Zm-.645,15V78.26h1.309V89Z" transform="translate(-73.598 -73.245)"/><path class="b" d="M110.28,101.385c0-3.882,2.462-5.635,5.479-5.635,2.995,0,5.457,1.752,5.457,5.635s-2.462,5.591-5.457,5.591C112.744,106.975,110.28,105.267,110.28,101.385Zm9.651,0c0-2.995-1.864-4.436-4.17-4.436-2.33,0-4.192,1.441-4.192,4.436s1.864,4.392,4.192,4.392C118.067,105.777,119.931,104.38,119.931,101.385Z" transform="translate(-93.42 -91.002)"/><path class="b" d="M189.8,85.731c-2.751,0-3.882-.6-3.882-2.995V69.89h1.287V82.734c0,1.375.8,1.73,2.6,1.73v1.267Z" transform="translate(-155.171 -69.89)"/><path class="b" d="M218.077,106.983c-2.729,0-3.637-1.375-3.637-3.305,0-2.174,1.842-3.327,4.725-3.327a8.578,8.578,0,0,1,2.572.354v-.354c0-2.528-1.265-3.349-2.64-3.349a9.6,9.6,0,0,0-3.882.843v-1.2a9.52,9.52,0,0,1,3.882-.887c2.064,0,3.926,1.065,3.926,4.592v4.658c0,1.309,1.62.711,2.108.4v1.175a3.4,3.4,0,0,1-1.507.4c-1.441,0-1.708-.733-1.82-1.331A6.676,6.676,0,0,1,218.077,106.983Zm3.66-5.145a9.024,9.024,0,0,0-2.618-.332c-2.108,0-3.4.821-3.4,2.174,0,1.175.6,2.018,2.352,2.018a6.69,6.69,0,0,0,3.661-1.109Z" transform="translate(-178.454 -91.01)"/><path class="b" d="M283.755,85.643H282.58V69.89h1.309v5.723a5.7,5.7,0,0,1,3.1-.955,5.076,5.076,0,0,1,5.191,5.457c0,4.837-3.371,5.745-5.125,5.745a4.816,4.816,0,0,1-3.173-1.331Zm.134-2.462a4.442,4.442,0,0,0,3.173,1.4c1.309,0,3.838-.689,3.838-4.458a3.892,3.892,0,0,0-3.9-4.17,6.287,6.287,0,0,0-3.1.931v6.3Z" transform="translate(-234.083 -69.89)"/></g><path class="c" d="M705.711,38.216h-4.385l-.947-.951H692.36V23.98h1.649v1.4h-.253V35.867h7.2l.947.951h3.224l.951-.951h1.241v1.4h-.663Z" transform="translate(-568.62 -22.078)"/><path class="b" d="M751.4,27.856H749.33V17.171a3.362,3.362,0,0,1,3.551-3.551h6.4V24.3h-1.4V15.017h-5.007a2,2,0,0,0-2.154,2.154V26.3a2.759,2.759,0,0,1,2.154-.793h.951v1.4h-.951c-.819,0-1.1.23-1.282.573Z" transform="translate(-615.129 -13.62)"/><path class="b" d="M712.676,27.856H710.6l-.195-.378c-.176-.343-.463-.573-1.282-.573h-6.4V13.62h6.4a3.362,3.362,0,0,1,3.551,3.551Zm-8.56-2.348h5.007a2.754,2.754,0,0,1,2.154.793V17.171a2,2,0,0,0-2.154-2.154h-5.007Z" transform="translate(-577.077 -13.62)"/><path class="d" d="M780.364,69.482a1.246,1.246,0,0,1-.286-.033,1.155,1.155,0,0,1-.734-.523l-.013-.02L778,66.568l-1.186,1.148a.955.955,0,0,1-1.041.231.92.92,0,0,1-.547-.872V57.62l7.653,5.562a1.044,1.044,0,0,1,.331,1.194,1.064,1.064,0,0,1-.981.826h-1.017l1.1,1.906a1.27,1.27,0,0,1-.481,1.695l-.74.466A1.379,1.379,0,0,1,780.364,69.482Zm-2.034-5.171,2.11,3.72.58-.365L778.8,63.808h2.567l-4.739-3.443V65.96Zm-2.483,2.4Z" transform="translate(-636.273 -49.541)"/></svg>