<svg xmlns="http://www.w3.org/2000/svg" xmlns:xlink="http://www.w3.org/1999/xlink" width="213.4" height="39.928" viewBox="0 0 213.4 39.928"><defs><style>.a{fill:#0085c0;}.b{fill:#b3cc20;}.c{fill:url(#a);}.d{fill:url(#b);}.e{fill:#fff;}</style><linearGradient id="a" y1="0.5" x2="1.001" y2="0.5" gradientUnits="objectBoundingBox"><stop offset="0" stop-color="#b3cc20"/><stop offset="0.31" stop-color="#78b175"/><stop offset="0.644" stop-color="#0299a5"/><stop offset="0.882" stop-color="#008bba"/><stop offset="1" stop-color="#0085c0"/></linearGradient><linearGradient id="b" x1="0.5" y1="1" x2="0.5" y2="0" xlink:href="#a"/></defs><g transform="translate(0 0)"><g transform="translate(0 16.515)"><path class="a" d="M8.232,49.054H6.51V26H8.425v8.375a8.315,8.315,0,0,1,4.546-1.4c3.9,0,7.6,2.667,7.6,7.991,0,7.082-4.94,8.41-7.5,8.41a7.014,7.014,0,0,1-4.642-1.95Zm.192-3.6A6.5,6.5,0,0,0,13.067,47.5c1.915,0,5.613-1.005,5.613-6.522a5.7,5.7,0,0,0-5.718-6.1,9.255,9.255,0,0,0-4.546,1.364v9.215Z" transform="translate(-6.51 -26)"/><path class="a" d="M28.1,27.27c.909,0,1.2.455,1.2,1.137a1.041,1.041,0,0,1-1.2,1.137,1.069,1.069,0,0,1-1.2-1.137C26.891,27.725,27.188,27.27,28.1,27.27Zm-.944,21.944V33.5h1.915V49.214H27.154Z" transform="translate(-9.074 -26.16)"/><path class="a" d="M33.98,42.194c0-5.683,3.6-8.244,8.017-8.244,4.38,0,7.991,2.562,7.991,8.244s-3.6,8.183-7.991,8.183C37.591,50.377,33.98,47.877,33.98,42.194Zm14.128,0c0-4.38-2.728-6.5-6.1-6.5-3.41,0-6.137,2.107-6.137,6.5S38.6,48.62,42.006,48.62C45.38,48.629,48.108,46.583,48.108,42.194Z" transform="translate(-9.964 -27)"/><path class="a" d="M62.543,49.186c-4.03,0-5.683-.874-5.683-4.38V26h1.88V44.8c0,2.011,1.172,2.535,3.8,2.535Z" transform="translate(-12.841 -26)"/><path class="a" d="M70.574,50.376c-4,0-5.324-2.011-5.324-4.835,0-3.182,2.693-4.87,6.915-4.87a12.875,12.875,0,0,1,3.768.516v-.516c0-3.7-1.853-4.9-3.864-4.9A14.094,14.094,0,0,0,66.387,37V35.243a13.909,13.909,0,0,1,5.683-1.3c3.016,0,5.744,1.556,5.744,6.723v6.819c0,1.915,2.369,1.04,3.086.586V49.79a5.031,5.031,0,0,1-2.212.586c-2.107,0-2.5-1.075-2.667-1.95A9.751,9.751,0,0,1,70.574,50.376Zm5.359-7.527a13.09,13.09,0,0,0-3.829-.49c-3.086,0-4.966,1.2-4.966,3.182,0,1.722.874,2.955,3.445,2.955a9.8,9.8,0,0,0,5.359-1.626V42.849Z" transform="translate(-13.896 -26.998)"/><path class="a" d="M87.542,49.054H85.82V26h1.915v8.375a8.315,8.315,0,0,1,4.546-1.4c3.9,0,7.6,2.667,7.6,7.991,0,7.082-4.94,8.41-7.5,8.41a7.014,7.014,0,0,1-4.642-1.95Zm.192-3.6A6.5,6.5,0,0,0,92.377,47.5c1.915,0,5.613-1.005,5.613-6.522a5.7,5.7,0,0,0-5.718-6.1,9.255,9.255,0,0,0-4.546,1.364v9.215Z" transform="translate(-16.482 -26)"/><path class="a" d="M105.09,42.072c0-5.158,3.672-8.052,7.694-8.052,4.739,0,7.562,3.182,7.562,8.34l-.061,1.233h-11.3c.227,2.562,2.011,3.864,4.476,3.864a18.317,18.317,0,0,0,5.91-.97V49.25a18.575,18.575,0,0,1-6.365,1.172C108.6,50.421,105.09,47.886,105.09,42.072Zm3.9-1.128h7.562a3.784,3.784,0,1,0-7.562,0Z" transform="translate(-18.905 -27.008)"/><path class="a" d="M138.783,35.8a7.4,7.4,0,0,1,4.9-1.853c3.471,0,6.749.909,6.749,7.405v8.7h-4V41.547c0-3.121-.647-4.7-3.121-4.7a4.089,4.089,0,0,0-3.112,1.652V50.054h-3.925V40.962c0-2.728-.909-4.127-3.121-4.127a5.209,5.209,0,0,0-3.112,1.329V50.045H126.22v-15.7h3.471l.227,1.268a5.733,5.733,0,0,1,3.637-1.652C135.732,33.95,137.585,34.273,138.783,35.8Z" transform="translate(-21.562 -27)"/><path class="a" d="M157.34,42.264a8.322,8.322,0,0,1,8.279-8.314,24.605,24.605,0,0,1,5.263.743v3.768a18.243,18.243,0,0,0-4.03-.455c-3.217,0-4.546,2.177-4.546,4.223a4.2,4.2,0,0,0,4.546,4.127,18.3,18.3,0,0,0,4.03-.455V49.7a23.108,23.108,0,0,1-5.263.717A8.218,8.218,0,0,1,157.34,42.264Z" transform="translate(-25.474 -27)"/><path class="a" d="M180.271,50.318a4.722,4.722,0,0,1-5-4.87c0-3.6,3.244-5.324,5.91-5.324a9.682,9.682,0,0,1,3.244.455v-.647c0-1.137-.874-2.046-3.182-2.046a15.233,15.233,0,0,0-4.607,1.005V35.158a15.178,15.178,0,0,1,6.172-1.2c3.244,0,6.557,1.687,6.557,7.012v4.249c0,1.495.717,1.4,2.107.874v3.313c-1.5.813-5.289,1.985-6.4-.944C184.336,49.889,181.5,50.318,180.271,50.318Zm4.161-6.854a6.046,6.046,0,0,0-2.081-.323,2.048,2.048,0,0,0-2.308,1.985c0,.621.323,1.495,1.985,1.495a4.868,4.868,0,0,0,2.4-.909Z" transform="translate(-27.729 -27.001)"/><path class="a" d="M200.571,38.757c0,.192,0,.682,1.687,1.2,3.506,1.137,6.1,1.853,5.945,5.587-.358,4.092-3.313,4.87-7.012,4.87A12.6,12.6,0,0,1,196,49.275V45.6a15.323,15.323,0,0,0,5.263,1.137c1.53,0,2.308-.516,2.308-1.268,0-.848-1.495-1.1-3.217-1.626l-.813-.227c-3.96-1.3-3.829-4.581-3.829-4.87,0-2.439,2.046-4.808,6.461-4.808a12.6,12.6,0,0,1,5.193,1.137V38.81a15.507,15.507,0,0,0-5.062-1.1C200.7,37.717,200.571,38.4,200.571,38.757Z" transform="translate(-30.299 -26.998)"/><path class="a" d="M217.4,50.318a4.722,4.722,0,0,1-5-4.87c0-3.6,3.244-5.324,5.91-5.324a9.682,9.682,0,0,1,3.244.455v-.647c0-1.137-.874-2.046-3.182-2.046a15.233,15.233,0,0,0-4.607,1.005V35.158a15.178,15.178,0,0,1,6.172-1.2c3.244,0,6.557,1.687,6.557,7.012v4.249c0,1.495.717,1.4,2.107.874v3.313c-1.5.813-5.289,1.985-6.4-.944C221.466,49.889,218.642,50.318,217.4,50.318Zm4.162-6.854a6.046,6.046,0,0,0-2.081-.323,2.048,2.048,0,0,0-2.308,1.985c0,.621.323,1.495,1.985,1.495a4.868,4.868,0,0,0,2.4-.909Z" transform="translate(-32.397 -27.001)"/></g><g transform="translate(194.524 0)"><path class="b" d="M247.887,16.543a9.433,9.433,0,1,0-18.867,0c0,6.146,6,13.184,8.428,16.672a1.226,1.226,0,0,0,2.011,0C241.889,29.727,247.887,22.689,247.887,16.543Z" transform="translate(-229.011 -7.11)"/><path class="c" d="M242.063,20.662a7.455,7.455,0,0,0,1.2-2.343c.892-3.016.131-6.251-4.878-7.178-.472-.087-.927-.184-1.355-.28-.009,0-.009,0-.017-.009H237a15.693,15.693,0,0,1-4.223-1.582,9.414,9.414,0,0,0-3.768,7.545,14.9,14.9,0,0,0,1.556,6.076,10.313,10.313,0,0,0,4.494,1.364c.192.009.393.017.594.017A8.336,8.336,0,0,0,242.063,20.662Z" transform="translate(-229.01 -7.382)"/><circle class="d" cx="5.429" cy="5.429" r="5.429" transform="translate(4.013 3.751)"/><circle class="e" cx="3.768" cy="3.768" r="3.768" transform="translate(5.674 5.377)"/></g></g></svg>