<svg xmlns="http://www.w3.org/2000/svg" xmlns:xlink="http://www.w3.org/1999/xlink" width="176" height="48" viewBox="0 0 176 48"><defs><style>.a{fill:#fff;}.b{clip-path:url(#a);}.c{fill:#cfcccd;}.d{fill:url(#b);}.e{fill:url(#c);}.f{fill:url(#d);}.g{fill:url(#e);}.h{fill:url(#f);}.i{fill:url(#g);}.j{fill:url(#h);}.k{fill:url(#i);}.l{fill:url(#j);}.m{fill:url(#k);}.n{fill:url(#l);}.o{fill:url(#m);}</style><clipPath id="a"><rect class="a" width="176" height="48" transform="translate(113 11)"/></clipPath><linearGradient id="b" x1="0.186" y1="0.491" x2="7.004" y2="0.668" gradientUnits="objectBoundingBox"><stop offset="0" stop-color="#0dbbe8"/><stop offset="1" stop-color="#6ffaaf"/></linearGradient><linearGradient id="c" x1="-0.921" y1="0.443" x2="11.047" y2="0.956" xlink:href="#b"/><linearGradient id="d" x1="-2.041" y1="0.439" x2="11.35" y2="0.799" xlink:href="#b"/><linearGradient id="e" x1="-1.292" y1="0.379" x2="4.831" y2="0.858" xlink:href="#b"/><linearGradient id="f" x1="-2.966" y1="0.323" x2="5.292" y2="0.748" xlink:href="#b"/><linearGradient id="g" x1="-3.197" y1="0.41" x2="3.922" y2="0.583" xlink:href="#b"/><linearGradient id="h" x1="-5.764" y1="0.285" x2="5.188" y2="0.672" xlink:href="#b"/><linearGradient id="i" x1="-6.289" y1="0.376" x2="4.021" y2="0.564" xlink:href="#b"/><linearGradient id="j" x1="-7.288" y1="0.231" x2="3.664" y2="0.618" xlink:href="#b"/><linearGradient id="k" x1="-3.979" y1="0.376" x2="1.805" y2="0.542" xlink:href="#b"/><linearGradient id="l" x1="-10.696" y1="0.121" x2="1.906" y2="0.556" xlink:href="#b"/><linearGradient id="m" x1="-7.544" y1="0.088" x2="0.714" y2="0.513" xlink:href="#b"/></defs><g class="b" transform="translate(-113 -11)"><g transform="translate(113 11)"><g transform="translate(31.108 0.543)"><path class="c" d="M33.683,14.146V14a1.263,1.263,0,0,0,.959-.353,1.078,1.078,0,0,0,.265-.5,4.34,4.34,0,0,0,.069-.934V7.663A4.47,4.47,0,0,0,34.9,6.7a1.021,1.021,0,0,0-.284-.511,1.108,1.108,0,0,0-.385-.234,1.983,1.983,0,0,0-.543-.088V5.732h3.939v.139a2.06,2.06,0,0,0-.556.095,1.01,1.01,0,0,0-.669.745,4.376,4.376,0,0,0-.076.953v3.554a11.491,11.491,0,0,0,.044,1.218,2.118,2.118,0,0,0,.164.656,1.37,1.37,0,0,0,.644.65,2.579,2.579,0,0,0,1.13.208,3.392,3.392,0,0,0,1.237-.2,1.917,1.917,0,0,0,.821-.6,2.27,2.27,0,0,0,.353-.631,6.936,6.936,0,0,0,.259-.922l.145.013-.082,2.525h-7.36Z" transform="translate(-33.683 -5.732)"/><path class="c" d="M45.639,5.732v.139a1.873,1.873,0,0,0-.568.1.988.988,0,0,0-.391.259,1.174,1.174,0,0,0-.3.682,6.621,6.621,0,0,0-.038.751v4.545a5.3,5.3,0,0,0,.05.808,1.386,1.386,0,0,0,.158.473,1.036,1.036,0,0,0,.41.366,1.817,1.817,0,0,0,.669.145v.139H41.694V14a1.881,1.881,0,0,0,.574-.1,1.038,1.038,0,0,0,.385-.259.981.981,0,0,0,.265-.5,4.706,4.706,0,0,0,.069-.934V7.663a4.661,4.661,0,0,0-.069-.934.981.981,0,0,0-.265-.5.946.946,0,0,0-.391-.259,2.143,2.143,0,0,0-.574-.1V5.732Z" transform="translate(-33.683 -5.732)"/><path class="c" d="M48.107,6.849v5.366a4.662,4.662,0,0,0,.069.934,1.031,1.031,0,0,0,.265.5.988.988,0,0,0,.391.259,2.091,2.091,0,0,0,.568.1v.139H46.561v-.139a1.873,1.873,0,0,0,.568-.1.988.988,0,0,0,.391-.259,1.078,1.078,0,0,0,.265-.5,4.34,4.34,0,0,0,.069-.934V7.657a4.678,4.678,0,0,0-.069-.928,1,1,0,0,0-.265-.5.967.967,0,0,0-.385-.259,2.142,2.142,0,0,0-.574-.1V5.732h2.373L53.94,12.12V7.67a4.662,4.662,0,0,0-.069-.934,1.031,1.031,0,0,0-.265-.5.988.988,0,0,0-.391-.259,2.091,2.091,0,0,0-.568-.1V5.732h2.841v.139a1.261,1.261,0,0,0-.959.36,1.078,1.078,0,0,0-.265.5,4.274,4.274,0,0,0-.069.928v6.483h-.278Z" transform="translate(-33.683 -5.732)"/><path class="c" d="M59.053,9.645h4.375V7.67a4.662,4.662,0,0,0-.069-.934,1.031,1.031,0,0,0-.265-.5.988.988,0,0,0-.391-.259,2.142,2.142,0,0,0-.574-.1V5.732h3.939v.139a1.873,1.873,0,0,0-.568.1.988.988,0,0,0-.391.259,1.078,1.078,0,0,0-.265.5,4.34,4.34,0,0,0-.069.934v4.545a4.633,4.633,0,0,0,.069.928,1.052,1.052,0,0,0,.265.5,1.145,1.145,0,0,0,.391.259,1.873,1.873,0,0,0,.568.1v.139H62.127v-.139a1.881,1.881,0,0,0,.574-.1,1.06,1.06,0,0,0,.391-.259,1.086,1.086,0,0,0,.265-.5,4.265,4.265,0,0,0,.069-.934V9.942H59.053v2.272a4.751,4.751,0,0,0,.069.934,1,1,0,0,0,.265.5,1.12,1.12,0,0,0,.385.259,1.919,1.919,0,0,0,.574.1v.139H56.408v-.139a1.881,1.881,0,0,0,.574-.1,1.038,1.038,0,0,0,.385-.259.981.981,0,0,0,.265-.5,4.706,4.706,0,0,0,.069-.934V7.676a4.662,4.662,0,0,0-.069-.934.981.981,0,0,0-.265-.5.946.946,0,0,0-.391-.259,2.142,2.142,0,0,0-.574-.1V5.732h3.939v.139a1.873,1.873,0,0,0-.568.1.988.988,0,0,0-.391.259,1.078,1.078,0,0,0-.265.5,4.34,4.34,0,0,0-.069.934V9.645Z" transform="translate(-33.683 -5.732)"/><path class="c" d="M75.579,14.146H71.527v-.139a1.877,1.877,0,0,0,.764-.183.755.755,0,0,0,.385-.663,1.936,1.936,0,0,0-.17-.675l-.107-.259L71.8,10.775H69.09l-.322.852-.152.366a3.112,3.112,0,0,0-.278,1.067.872.872,0,0,0,.1.423.9.9,0,0,0,.271.322,1.2,1.2,0,0,0,.619.2v.139H66.565V14a1.3,1.3,0,0,0,.574-.158,1.681,1.681,0,0,0,.48-.454,3.535,3.535,0,0,0,.385-.65c.126-.265.29-.663.5-1.193l2.254-5.814h.354l2.683,6.477a10.429,10.429,0,0,0,.48,1.048,1.508,1.508,0,0,0,.391.473A1.017,1.017,0,0,0,75,13.9a3.124,3.124,0,0,0,.574.1v.145ZM71.7,10.51,70.409,7.316,69.191,10.51Z" transform="translate(-33.683 -5.732)"/></g><path class="d" d="M4.52,32.907a1.78,1.78,0,0,1-1.6-.694,2.29,2.29,0,0,1-.347-1.294,6.088,6.088,0,0,1,.511-2.26,11.613,11.613,0,0,1,1.4-2.437A10.617,10.617,0,0,1,6.5,24.158a6.159,6.159,0,0,1,2.4-1.174,2.869,2.869,0,0,1,.6-.069,2.206,2.206,0,0,1,1.161.309,2.246,2.246,0,0,1,.814.9,2.949,2.949,0,0,1,.3,1.389,5.156,5.156,0,0,1-.265,1.534c-.057.1-.12.158-.183.158s-.114-.076-.133-.221l-.038-.391c-.025-.265-.057-.543-.095-.84a4.276,4.276,0,0,0-.2-.827,1.643,1.643,0,0,0-.4-.644.962.962,0,0,0-.694-.246A3,3,0,0,0,8.7,24.29a6.725,6.725,0,0,0-2.443,1.78,10.4,10.4,0,0,0-1.717,2.512,5.239,5.239,0,0,0-.606,2.178,2.339,2.339,0,0,0,.088.7.854.854,0,0,0,.909.568,4.648,4.648,0,0,0,2.014-.739,22.718,22.718,0,0,0,2.544-1.73A26.562,26.562,0,0,0,11.7,27.68a3.739,3.739,0,0,0,.985-1.193A35.141,35.141,0,0,1,14,21.14a47.249,47.249,0,0,1,2.3-5.751,35.909,35.909,0,0,1,3.011-5.233,16.822,16.822,0,0,1,3.472-3.781A4.338,4.338,0,0,1,25.143,5.29q1.193,0,1.212,1.742a10.243,10.243,0,0,1-.713,3.238,27.2,27.2,0,0,1-2.209,4.539,49.011,49.011,0,0,1-3.825,5.5,67.312,67.312,0,0,1-5.549,6.136,1.461,1.461,0,0,0-.246.656,5.284,5.284,0,0,0-.114,1.161,10.936,10.936,0,0,0,.076,1.13,4.4,4.4,0,0,0,.234,1.124,1.926,1.926,0,0,0,.663.846,1.417,1.417,0,0,0,.764.221h.044q1.051-.028,2.664-1.723a22.282,22.282,0,0,0,2.007-2.418.44.44,0,0,1,.082-.032.865.865,0,0,1,.227-.025.207.207,0,0,1,.107.025.1.1,0,0,1,.044.1l-.006.069a13.283,13.283,0,0,1-3.017,3.7,4.177,4.177,0,0,1-2.437,1.042l-.189-.006a2.042,2.042,0,0,1-1.692-1.073,7.079,7.079,0,0,1-.707-3.346,7.034,7.034,0,0,0-.726.644c-.3.278-.656.606-1.073.978s-.884.757-1.389,1.143a16.007,16.007,0,0,1-1.578,1.1,9.578,9.578,0,0,1-1.648.827A4.708,4.708,0,0,1,4.52,32.907Zm9.425-7.348A13.724,13.724,0,0,0,15,24.524c.5-.537,1.1-1.206,1.793-2.02s1.433-1.73,2.2-2.727,1.54-2.052,2.285-3.144,1.42-2.19,2.026-3.282a21.846,21.846,0,0,0,1.471-3.131,7.928,7.928,0,0,0,.555-2.689q0-.237-.019-.436c-.057-.492-.234-.739-.543-.739a1.435,1.435,0,0,0-.764.309,6.963,6.963,0,0,0-.909.789q-.473.473-.909.985c-.29.335-.537.644-.757.915s-.366.473-.454.593a37.489,37.489,0,0,0-2.765,4.665Q16.741,17.5,15.541,20.5A28.962,28.962,0,0,0,13.944,25.559Z" transform="translate(-2.575 -5.189)"/><path class="e" d="M22.99,33.3c-.107,0-.2,0-.259-.006a1.244,1.244,0,0,0-.133-.006,3.773,3.773,0,0,1-2.392-.821,2.763,2.763,0,0,1-1-2.039v-.1a3.791,3.791,0,0,1,.436-1.666A8.49,8.49,0,0,1,20.8,26.91a11.024,11.024,0,0,1,1.635-1.572A8.548,8.548,0,0,1,24.309,24.2a4.614,4.614,0,0,1,1.862-.423,2.742,2.742,0,0,1,.606.063,1.649,1.649,0,0,1,.776.36.626.626,0,0,1,.208.461l-.006.114q-.256,1.117-2.563,2.285a32.693,32.693,0,0,1-4.021,1.679,2.183,2.183,0,0,0-.467.978l-.006.013a2.17,2.17,0,0,0-.126.7V30.5a2.2,2.2,0,0,0,.587,1.414,2.961,2.961,0,0,0,2.165.783l.2-.006a10.336,10.336,0,0,0,3.75-.972,12.055,12.055,0,0,0,3-2.014,13.856,13.856,0,0,0,2.165-2.474.209.209,0,0,1,.164-.069.12.12,0,0,1,.114.063.21.21,0,0,1,.032.126.253.253,0,0,1-.019.095c-.069.088-.177.227-.322.423-.2.29-.492.656-.865,1.111a12.715,12.715,0,0,1-3.686,2.979,10.339,10.339,0,0,1-4.141,1.332C23.413,33.286,23.173,33.3,22.99,33.3ZM21.627,28a11.2,11.2,0,0,0,1.66-.656,14.407,14.407,0,0,0,2.241-1.262c.751-.524,1.168-.959,1.256-1.313A.819.819,0,0,0,26.8,24.6a.314.314,0,0,0-.057-.183.166.166,0,0,0-.139-.082,4.453,4.453,0,0,0-2.026.915,15.826,15.826,0,0,0-1.881,1.5A6.006,6.006,0,0,0,21.627,28Z" transform="translate(-2.575 -5.189)"/><path class="f" d="M34.081,36.713a1.384,1.384,0,0,1-1.225-.593,1.329,1.329,0,0,1-.246-.77l-.006-.2a2.068,2.068,0,0,1,.265-.922,7.045,7.045,0,0,1,.713-1.111c.3-.4.612-.783.928-1.161q.559-.663.947-1.193a1.621,1.621,0,0,0,.385-.865.949.949,0,0,0-.644-.757,10.679,10.679,0,0,1-3.232-1.831,1.878,1.878,0,0,1-.473-.745,2.653,2.653,0,0,1-.1-.745,2.08,2.08,0,0,1,.271-1.035,3.221,3.221,0,0,1,.694-.858,3.26,3.26,0,0,1,.9-.587,2.25,2.25,0,0,1,.9-.208l.461.088a.952.952,0,0,1,.429.341,1.064,1.064,0,0,1,.164.612,2.271,2.271,0,0,1-.2.846,4.712,4.712,0,0,1-.663,1.092,10.558,10.558,0,0,1-1.218,1.313,18.659,18.659,0,0,0,1.78.922c.417.2.789.379,1.117.562a3.031,3.031,0,0,1,.776.612,1.231,1.231,0,0,1,.284.814,1.705,1.705,0,0,1-.278.77,11.61,11.61,0,0,1-.7,1.042c-.284.379-.568.751-.865,1.124-.335.423-.619.8-.858,1.13a2.233,2.233,0,0,0-.4.732l-.006.17c0,.057.006.114.013.177a.339.339,0,0,0,.069.17.3.3,0,0,0,.114.12.516.516,0,0,0,.12.057.312.312,0,0,0,.095.019h.038a4.305,4.305,0,0,0,1.679-1.124c.764-.694,1.6-1.54,2.519-2.525s1.774-1.963,2.588-2.91S42.66,27.573,43.114,27a.274.274,0,0,1,.2-.095.233.233,0,0,1,.133.038.111.111,0,0,1,.057.095l-.025.063-.688.915c-.461.612-1.054,1.376-1.767,2.279s-1.477,1.818-2.285,2.74a29.364,29.364,0,0,1-2.285,2.392,5.089,5.089,0,0,1-1.774,1.206A2.307,2.307,0,0,1,34.081,36.713ZM32.92,27.226a7.139,7.139,0,0,0,.966-1.3,2.528,2.528,0,0,0,.372-1.111q0-.454-.436-.454l-.12.006a1.224,1.224,0,0,0-.915.518,1.739,1.739,0,0,0-.309,1.029,2.145,2.145,0,0,0,.114.682A1.943,1.943,0,0,0,32.92,27.226Z" transform="translate(-2.575 -5.189)"/><path class="g" d="M41.688,33.2a.712.712,0,0,1-.5-.2.627.627,0,0,1-.221-.48.753.753,0,0,1,.057-.278,62.633,62.633,0,0,1,4.21-7.588l.417-.669a1.12,1.12,0,0,1,.379-.417.779.779,0,0,1,.4-.12.615.615,0,0,1,.41.145.473.473,0,0,1,.177.36.517.517,0,0,1-.107.29c0,.013-.24.4-.713,1.168q-.653,1.06-1.515,2.468c-.568.934-1.079,1.78-1.521,2.538a6.526,6.526,0,0,0-.669,1.294l.013.019c.025,0,.063-.032.12-.095q2.765-2.85,5.031-4.766a31.382,31.382,0,0,1,3.876-2.891,5.607,5.607,0,0,1,2.418-.972c.442,0,.675.234.688.707a5.787,5.787,0,0,1-.89,2.38,34.4,34.4,0,0,1-2.784,4.1,28.078,28.078,0,0,1,2.834-2.557A20.793,20.793,0,0,1,56.724,25.7a5.365,5.365,0,0,1,2.361-.745c.821,0,1.231.467,1.231,1.408a7.091,7.091,0,0,1-.454,2.146,6.694,6.694,0,0,0-.417,1.963c0,.72.309,1.079.934,1.079a3.128,3.128,0,0,0,1.054-.215,10.91,10.91,0,0,0,1.288-.568,12.073,12.073,0,0,0,2.241-1.515,28.234,28.234,0,0,0,2.115-1.988.353.353,0,0,1,.208-.076.248.248,0,0,1,.114.025.086.086,0,0,1,.044.082.206.206,0,0,1-.082.139,19.363,19.363,0,0,1-1.786,1.723,19.077,19.077,0,0,1-2.014,1.515,12.3,12.3,0,0,1-2.039,1.079,4.871,4.871,0,0,1-1.837.4,2.493,2.493,0,0,1-.625-.076,1.22,1.22,0,0,1-.8-.543,1.829,1.829,0,0,1-.227-.934,4.925,4.925,0,0,1,.177-1.256q.17-.672.379-1.326c.114-.366.215-.713.3-1.029a3.056,3.056,0,0,0,.126-.814.716.716,0,0,0-.114-.436.475.475,0,0,0-.4-.164,5.981,5.981,0,0,0-2.373,1.01,28.122,28.122,0,0,0-5.643,4.867.783.783,0,0,1-.53.215.952.952,0,0,1-.6-.221.673.673,0,0,1-.278-.518.531.531,0,0,1,.1-.309l.417-.612c.025-.032.044-.063.069-.095.4-.574.84-1.231,1.338-1.976.524-.789.991-1.521,1.4-2.2a3.749,3.749,0,0,0,.6-1.37c0-.069-.019-.107-.057-.126a.709.709,0,0,0-.24-.038q-.937,0-3.3,1.906-1.922,1.553-4.274,3.851c-1.281,1.256-2.26,2.254-2.929,3A.712.712,0,0,1,41.688,33.2Z" transform="translate(-2.575 -5.189)"/><path class="h" d="M74.083,35.419a2.8,2.8,0,0,1-.4-.025,1.358,1.358,0,0,1-1.155-.9,2.664,2.664,0,0,1-.095-.713,4.766,4.766,0,0,1,.177-1.136,8.577,8.577,0,0,1,.568-1.534c.253-.549.454-.959.612-1.237a2.341,2.341,0,0,0,.114-.227q-4.9,4.005-7.12,4.021h-.057a1.743,1.743,0,0,1-1.345-.461,1.677,1.677,0,0,1-.423-1.2,6.088,6.088,0,0,1,1.174-3.137,12.726,12.726,0,0,1,3.175-3.333,8.607,8.607,0,0,1,2.31-1.206,7.2,7.2,0,0,1,2.291-.4,3.869,3.869,0,0,1,2.07.53A2.186,2.186,0,0,1,77,26.083a.238.238,0,0,1-.069.158.252.252,0,0,1-.164.063A.217.217,0,0,1,76.6,26.2a2.244,2.244,0,0,0-1.073-1.048,3.413,3.413,0,0,0-1.5-.328,4.756,4.756,0,0,0-.593.038A6.336,6.336,0,0,0,70.9,25.925a12.608,12.608,0,0,0-3.857,4.292,4.22,4.22,0,0,0-.606,1.875.7.7,0,0,0,.8.8,3.1,3.1,0,0,0,.972-.208q2.415-.843,6.666-4.76l.177-.177a4.382,4.382,0,0,1,.789-.669.733.733,0,0,1,.4-.126l.038.006c.234.019.353.133.353.354a1.129,1.129,0,0,1-.17.5c-.114.208-.259.454-.442.745-.221.354-.461.776-.726,1.262a16.27,16.27,0,0,0-1.225,2.961,4.288,4.288,0,0,0-.259,1.218.522.522,0,0,0,.24.511,1.429,1.429,0,0,0,.555.107,6.268,6.268,0,0,0,3.276-1.648c.783-.612,1.565-1.288,2.361-2.02s1.54-1.458,2.247-2.159,1.326-1.275,1.837-1.736a.084.084,0,0,1,.063-.025l.025.006a.2.2,0,0,1,.183.2v.038a.038.038,0,0,0-.006.025c-.006.006-.006.019-.013.025l-.013.025c-.492.48-1.035,1.029-1.635,1.641q-1.089,1.117-2.31,2.3t-2.449,2.178A12.279,12.279,0,0,1,75.787,35,4.331,4.331,0,0,1,74.083,35.419Z" transform="translate(-2.575 -5.189)"/><path class="i" d="M85.85,33.425h-.032a2.147,2.147,0,0,1-1.742-.865,3.8,3.8,0,0,1-.682-2.171l.044-.985a22.25,22.25,0,0,1,1.42-4.886q1.127-2.841,2.607-5.934l1.919-3.851c-.391-.259-.783-.543-1.18-.858-.732-.537-1.446-1.035-2.146-1.5a12.648,12.648,0,0,0-2.1-1.124,5.579,5.579,0,0,0-2.165-.454,4.491,4.491,0,0,0-1.749.372l-.069.013a.11.11,0,0,1-.107-.12l.019-.139a2.8,2.8,0,0,1,2.19-.941h.076a7.231,7.231,0,0,1,2.658.625,17.191,17.191,0,0,1,2.411,1.281c.783.5,1.307.871,1.578,1.086.473.328.833.6,1.092.808q1.269-2.4,2.506-4.311a20.394,20.394,0,0,1,2.336-3.049A3.487,3.487,0,0,1,96.675,5.2l.082-.006c.366.006.543.215.543.625a6.318,6.318,0,0,1-.638,2.247q-.644,1.477-1.723,3.4c-.72,1.281-1.5,2.613-2.361,4a11.182,11.182,0,0,0,2.064.846,7.706,7.706,0,0,0,2.26.328,8.057,8.057,0,0,0,2.544-.442,11.925,11.925,0,0,0,2.86-1.5l.189-.069c.1,0,.145.05.145.158a.468.468,0,0,1-.133.265,7.579,7.579,0,0,1-5.479,2.588,11.261,11.261,0,0,1-4.993-1.326q-2.907,4.592-4.924,7.594c-.631.941-1.048,1.578-1.262,1.913q1.979-3.655,4.141-7.266c.5-.846,1.01-1.7,1.5-2.544A6.2,6.2,0,0,1,90.47,15.4l-1.117,2.3c-.114.227-.391.789-.814,1.692s-.9,1.995-1.433,3.257-1.023,2.55-1.464,3.844a21.39,21.39,0,0,0-.89,3.478,5.127,5.127,0,0,0-.069.783,2.18,2.18,0,0,0,.442,1.5,1.326,1.326,0,0,0,1.042.436,3.7,3.7,0,0,0,1.875-.644,14.225,14.225,0,0,0,2.613-2.127,23.591,23.591,0,0,0,2.336-2.733.237.237,0,0,1,.177-.107c.095,0,.145.038.158.107l-.038.1c-.341.5-.8,1.1-1.376,1.793a25.089,25.089,0,0,1-1.925,2.039,13.879,13.879,0,0,1-2.159,1.679A4.194,4.194,0,0,1,85.85,33.425Zm6.142-18.268q.966-1.61,1.862-3.213t1.7-3.245a7.01,7.01,0,0,0,.814-2.228q0-.218-.133-.208c-.24,0-.808.644-1.692,1.938a67.1,67.1,0,0,0-3.585,6.3Z" transform="translate(-2.575 -5.189)"/><path class="j" d="M94.554,33.324a2.158,2.158,0,0,1-1.509-.562,2.766,2.766,0,0,1-.821-1.54l-.057-.391c-.006-.107-.013-.221-.013-.328a5.72,5.72,0,0,1,.265-1.6,4.589,4.589,0,0,1,.9-1.666.645.645,0,0,1,.442-.221c.1,0,.158.025.17.082a6.028,6.028,0,0,0-.7,2.683c0,.126.006.246.013.372a2.889,2.889,0,0,0,.587,1.6,1.535,1.535,0,0,0,1.237.562l.12-.006a4.4,4.4,0,0,0,2.481-1.382,4.185,4.185,0,0,1-2.481-1.2,3.475,3.475,0,0,1-.89-2.1c-.006-.114-.013-.227-.013-.353a5.681,5.681,0,0,1,.2-1.464,8.567,8.567,0,0,1,1.521-3.112A4.934,4.934,0,0,1,99.08,20.73l.183-.006a1.834,1.834,0,0,1,1.193.454,2.915,2.915,0,0,1,.827,1.521l.114.757a5.581,5.581,0,0,1,.025.574,10.318,10.318,0,0,1-.17,1.7,9.915,9.915,0,0,1-.694,2.222,10.134,10.134,0,0,1-1.446,2.38l.215.006a9.636,9.636,0,0,0,1.78-.221,11.4,11.4,0,0,0,2.512-.871,12.6,12.6,0,0,0,2.815-1.812c.24-.069.366-.1.379-.1.088,0,.139.032.145.095l-.025.107a8.926,8.926,0,0,1-1.812,1.471,13.414,13.414,0,0,1-2.594,1.275,11.52,11.52,0,0,1-3.043.688L98.538,31a9.611,9.611,0,0,1-2.064,1.717A3.941,3.941,0,0,1,94.554,33.324Zm3.712-3a8.58,8.58,0,0,0,1.427-2.165,10.061,10.061,0,0,0,.757-2.361,9,9,0,0,0,.164-1.622,3.832,3.832,0,0,0-.417-1.963.924.924,0,0,0-.821-.5,1.944,1.944,0,0,0-.985.372,4.449,4.449,0,0,0-1.111,1.067,9.084,9.084,0,0,0-1.294,2.336,6.422,6.422,0,0,0-.423,2.222l.006.29a2.389,2.389,0,0,0,.732,1.572A3.131,3.131,0,0,0,98.266,30.319Z" transform="translate(-2.575 -5.189)"/><path class="k" d="M107.577,33.595a1.746,1.746,0,0,1-.858-.208,1.371,1.371,0,0,1-.581-.663,2.858,2.858,0,0,1-.208-1.187,11.443,11.443,0,0,1,.467-2.62,29.9,29.9,0,0,1,1.4-3.63q.966-2.2,2.7-5.65A58.7,58.7,0,0,1,114,13.452a26.511,26.511,0,0,1,3.3-4.191,4.917,4.917,0,0,1,2.664-1.648l.29-.013a1.234,1.234,0,0,1,1.4,1.4q0,1.638-1.824,4.816a45.848,45.848,0,0,1-4.305,6.174c-.877,1.079-1.919,2.266-3.112,3.573s-2.241,2.43-3.137,3.365-1.351,1.4-1.376,1.4a6.215,6.215,0,0,0-.789,2.885,1.853,1.853,0,0,0,.284,1.092,1.183,1.183,0,0,0,.966.429,2.759,2.759,0,0,0,1.262-.366,14.024,14.024,0,0,0,3.03-2.329q1.392-1.326,2.9-3.049c.006-.019.032-.038.063-.069a.2.2,0,0,1,.126-.069.105.105,0,0,1,.069.025c.025.019.063.038.1.063a.545.545,0,0,1,.1.063.128.128,0,0,1,.038.095l-.013.063a26.228,26.228,0,0,1-2.733,3.049,18.56,18.56,0,0,1-3.118,2.538A5.524,5.524,0,0,1,107.577,33.595Zm.65-6.3,1.288-1.363q1.278-1.363,2.979-3.257c1.13-1.262,2.153-2.468,3.08-3.617a35.905,35.905,0,0,0,2.86-4.16,21.318,21.318,0,0,0,1.641-3.39,7.158,7.158,0,0,0,.53-2.2q0-.682-.436-.7a1.948,1.948,0,0,0-1.048.568,13.527,13.527,0,0,0-1.66,1.786,61.684,61.684,0,0,0-5.094,7.853c-.309.524-.631,1.079-.959,1.66A53.4,53.4,0,0,0,108.227,27.3Z" transform="translate(-2.575 -5.189)"/><path class="l" d="M117.134,33.324a2.158,2.158,0,0,1-1.509-.562,2.766,2.766,0,0,1-.821-1.54l-.057-.391c-.006-.107-.013-.221-.013-.328A5.72,5.72,0,0,1,115,28.9a4.589,4.589,0,0,1,.9-1.666.645.645,0,0,1,.442-.221c.1,0,.158.025.17.082a6.028,6.028,0,0,0-.7,2.683c0,.126.006.246.013.372a2.889,2.889,0,0,0,.587,1.6,1.535,1.535,0,0,0,1.237.562l.12-.006a4.4,4.4,0,0,0,2.481-1.382,4.185,4.185,0,0,1-2.481-1.2,3.475,3.475,0,0,1-.89-2.1c-.006-.114-.013-.227-.013-.353a5.681,5.681,0,0,1,.2-1.464,8.568,8.568,0,0,1,1.521-3.112,4.934,4.934,0,0,1,3.068-1.976l.183-.006a1.834,1.834,0,0,1,1.193.454,2.915,2.915,0,0,1,.827,1.521l.114.757a5.581,5.581,0,0,1,.025.574,10.318,10.318,0,0,1-.17,1.7,9.915,9.915,0,0,1-.694,2.222,10.35,10.35,0,0,1-1.446,2.38l.215.006a9.636,9.636,0,0,0,1.78-.221,11.4,11.4,0,0,0,2.512-.871,12.6,12.6,0,0,0,2.815-1.812c.24-.069.366-.1.379-.1.088,0,.139.032.145.095l-.025.107a8.926,8.926,0,0,1-1.812,1.471,13.414,13.414,0,0,1-2.594,1.275,11.52,11.52,0,0,1-3.043.688l-.947.025a9.611,9.611,0,0,1-2.064,1.717A3.942,3.942,0,0,1,117.134,33.324Zm3.712-3a8.58,8.58,0,0,0,1.427-2.165,10.061,10.061,0,0,0,.757-2.361,9,9,0,0,0,.164-1.622,3.832,3.832,0,0,0-.417-1.963.924.924,0,0,0-.821-.5,1.944,1.944,0,0,0-.985.372,4.449,4.449,0,0,0-1.111,1.067,9.084,9.084,0,0,0-1.294,2.336,6.422,6.422,0,0,0-.423,2.222l.006.29a2.389,2.389,0,0,0,.732,1.572A3.131,3.131,0,0,0,120.846,30.319Z" transform="translate(-2.575 -5.189)"/><path class="m" d="M119.413,53.189a1.419,1.419,0,0,1-1-.328,1.276,1.276,0,0,1-.366-.985l.006-.17a8.086,8.086,0,0,1,1.534-3.491,38.562,38.562,0,0,1,4.741-5.568,102.694,102.694,0,0,1,8.711-7.663,1.664,1.664,0,0,0,.29-.568c.114-.316.227-.682.335-1.1a6.94,6.94,0,0,0,.221-1.61,1.139,1.139,0,0,0-.1-.524.413.413,0,0,0-.4-.2,1.418,1.418,0,0,0-.473.1,5.72,5.72,0,0,0-1,.5c-.316.2-.638.4-.972.638-.354.252-.751.518-1.2.8a15.39,15.39,0,0,1-1.616.871,3.092,3.092,0,0,1-1.212.335.787.787,0,0,1-.669-.284,1.212,1.212,0,0,1-.208-.732l.006-.183a5.491,5.491,0,0,1,.593-1.938,10.482,10.482,0,0,1,1.313-2.07,17.551,17.551,0,0,1,3.6-3.346,10.577,10.577,0,0,1,3.958-1.793,5.1,5.1,0,0,1,.877-.088,1.909,1.909,0,0,1,1.944,1.06,3.259,3.259,0,0,1,.246.783,4.528,4.528,0,0,1,.082.833l-.006.2c-.025.271-.082.436-.177.486a.427.427,0,0,1-.2.057c-.133,0-.227-.082-.278-.246a3.166,3.166,0,0,1-.126-.606c-.025-.2-.063-.391-.1-.587a2.434,2.434,0,0,0-.2-.555,1.091,1.091,0,0,0-.379-.417,1.23,1.23,0,0,0-.644-.158,7.689,7.689,0,0,0-3.434,1.262,15.988,15.988,0,0,0-3.175,2.582,11.027,11.027,0,0,0-2.146,3.062,4.752,4.752,0,0,0-.461,1.5c0,.259.095.385.284.385a2.439,2.439,0,0,0,1.086-.41c.461-.271.978-.6,1.547-.985.3-.189.486-.316.574-.379q.814-.549,1.61-1a4.066,4.066,0,0,1,1.458-.537l.227-.013c.846,0,1.269.467,1.269,1.408,0,.088,0,.17-.006.265a11.067,11.067,0,0,1-.3,1.515,3.3,3.3,0,0,0-.114.524v.013a.006.006,0,0,0,.006.006c.006-.006.019-.006.025-.013.259-.158.694-.423,1.313-.789q5.558-3.3,9.38-5.833l.215-.025c.12,0,.183.044.183.126a.174.174,0,0,1-.095.158q-2.187,1.6-4.52,3.112c-1.553,1.01-3.1,1.995-4.627,2.942L134.9,34.725a1.437,1.437,0,0,0-.4.568c-.139.29-.309.675-.505,1.174q-.331.852-.89,2.083a36.422,36.422,0,0,1-3.724,6.432,45.5,45.5,0,0,1-3.163,3.876,19.476,19.476,0,0,1-2.588,2.411,11.848,11.848,0,0,1-2.361,1.446A4.861,4.861,0,0,1,119.413,53.189Zm0-1.054a4.211,4.211,0,0,0,1.913-.726,18.028,18.028,0,0,0,2.733-2.064,28.639,28.639,0,0,0,3.4-3.705,37.947,37.947,0,0,0,3.125-4.659,27.832,27.832,0,0,0,2.222-4.873,24.98,24.98,0,0,0-3.32,2.632q-2.594,2.272-5.151,4.829a35.19,35.19,0,0,0-3.245,3.75,20.645,20.645,0,0,0-1.7,2.531,3.967,3.967,0,0,0-.587,1.648.545.545,0,0,0,.606.619h.013Z" transform="translate(-2.575 -5.189)"/><path class="n" d="M147.055,32.692a3.838,3.838,0,0,1-1.294-.208,1.892,1.892,0,0,1-.934-.739,2.725,2.725,0,0,1-.354-1.5,5.423,5.423,0,0,1,.379-1.831,13.441,13.441,0,0,1,.865-1.831,5.231,5.231,0,0,1,1.4-1.862.974.974,0,0,1,.436-.114.6.6,0,0,1,.4.139.465.465,0,0,1,.164.379.922.922,0,0,1-.12.423c-.29.429-.593.934-.915,1.509a14.526,14.526,0,0,0-.84,1.767,4.5,4.5,0,0,0-.347,1.616,1.281,1.281,0,0,0,1.244,1.4,5.642,5.642,0,0,0,.656.038,9.3,9.3,0,0,0,4.179-1.18,23.805,23.805,0,0,0,3.5-2.222c.366-.271.77-.593,1.225-.959a.668.668,0,0,1,.423-.139c.133,0,.2.038.208.107l-.038.088a12.907,12.907,0,0,1-1.363,1.18,24.949,24.949,0,0,1-2.392,1.648,20.517,20.517,0,0,1-2.973,1.509,10.178,10.178,0,0,1-3.087.776Zm1.66-9.191a1.026,1.026,0,0,1-.707-.227.683.683,0,0,1-.215-.5,1.182,1.182,0,0,1,.17-.593,1.677,1.677,0,0,1,.442-.5,1.009,1.009,0,0,1,.6-.2,1.037,1.037,0,0,1,.555.183.655.655,0,0,1,.316.555,1.031,1.031,0,0,1-.208.6,2.149,2.149,0,0,1-.486.5A.884.884,0,0,1,148.715,23.5Z" transform="translate(-2.575 -5.189)"/><path class="o" d="M164.036,35.419a2.8,2.8,0,0,1-.4-.025,1.358,1.358,0,0,1-1.155-.9,2.664,2.664,0,0,1-.095-.713,4.767,4.767,0,0,1,.177-1.136,8.577,8.577,0,0,1,.568-1.534c.253-.549.454-.959.612-1.237a2.336,2.336,0,0,0,.114-.227q-4.9,4.005-7.12,4.021h-.057a1.743,1.743,0,0,1-1.345-.461,1.677,1.677,0,0,1-.423-1.2,6.088,6.088,0,0,1,1.174-3.137,12.726,12.726,0,0,1,3.175-3.333,8.607,8.607,0,0,1,2.31-1.206,7.2,7.2,0,0,1,2.291-.4,3.869,3.869,0,0,1,2.07.53,2.186,2.186,0,0,1,1.016,1.629.238.238,0,0,1-.069.158.252.252,0,0,1-.164.063.217.217,0,0,1-.164-.107,2.244,2.244,0,0,0-1.073-1.048,3.413,3.413,0,0,0-1.5-.328,4.756,4.756,0,0,0-.593.038,6.337,6.337,0,0,0-2.544,1.067,12.608,12.608,0,0,0-3.857,4.292,4.22,4.22,0,0,0-.606,1.875.7.7,0,0,0,.8.8,3.1,3.1,0,0,0,.972-.208q2.415-.843,6.666-4.76l.177-.177a4.382,4.382,0,0,1,.789-.669.733.733,0,0,1,.4-.126l.038.006c.234.019.354.133.354.354a1.129,1.129,0,0,1-.17.5c-.114.208-.259.454-.442.745-.221.354-.461.776-.726,1.262a16.27,16.27,0,0,0-1.225,2.961,4.289,4.289,0,0,0-.259,1.218.522.522,0,0,0,.24.511,1.406,1.406,0,0,0,.555.107,6.268,6.268,0,0,0,3.276-1.648c.783-.612,1.566-1.288,2.361-2.02s1.54-1.458,2.247-2.159,1.326-1.275,1.837-1.736a.084.084,0,0,1,.063-.025l.025.006a.2.2,0,0,1,.183.2v.038a.038.038,0,0,0-.006.025c-.006.006-.006.019-.013.025l-.013.025c-.492.48-1.035,1.029-1.635,1.641q-1.089,1.117-2.31,2.3c-.814.789-1.629,1.515-2.456,2.178a12.279,12.279,0,0,1-2.38,1.54A4.278,4.278,0,0,1,164.036,35.419Z" transform="translate(-2.575 -5.189)"/></g></g></svg>