<svg xmlns="http://www.w3.org/2000/svg" width="32.004" height="32.004" viewBox="0 0 32.004 32.004"><defs><style>.a{fill:#0dbbe8;}</style></defs><g transform="translate(-8.428 48.001)"><g transform="translate(8.428 -48.001)"><path class="a" d="M27.715,16.22l1.815-1.815A8.437,8.437,0,0,0,17.6,2.473L2.473,17.6A8.437,8.437,0,0,0,14.406,29.53l1.815-1.815A8.436,8.436,0,1,0,27.715,16.22ZM15.127,23.564a8.419,8.419,0,0,0,.313,2.28L13.08,28.2A6.562,6.562,0,0,1,3.8,18.924l6.842-6.842,6.283,6.283A8.4,8.4,0,0,0,15.127,23.564Zm7.5,6.5a6.563,6.563,0,0,1,0-12.991ZM18.238,17.026l-6.27-6.27L18.924,3.8A6.562,6.562,0,0,1,28.2,13.079l-2.36,2.36a8.43,8.43,0,0,0-7.607,1.586ZM24.5,30.059V17.069a6.563,6.563,0,0,1,0,12.991Z" transform="translate(0 0.001)"/></g></g></svg>