<svg xmlns="http://www.w3.org/2000/svg" xmlns:xlink="http://www.w3.org/1999/xlink" width="32" height="32" viewBox="0 0 32 32"><defs><style>.a{fill:#fff;}.b{clip-path:url(#a);}</style><clipPath id="a"><circle class="a" cx="16" cy="16" r="16" transform="translate(0 -0.033)"/></clipPath></defs><g class="b" transform="translate(0 0.033)"><g transform="translate(10.843 4.942)"><path class="a" d="M4.21,26.346h-2.3A4.942,4.942,0,0,0-1.874,27.6a5.267,5.267,0,0,0-1.151,3.686v1.547a.74.74,0,0,1-.74.74h-.794a.74.74,0,0,0-.74.74v2.319a.74.74,0,0,0,.74.74h.794a.74.74,0,0,1,.74.74v9.544a.74.74,0,0,0,.74.74H.8a.74.74,0,0,0,.74-.74V38.112a.74.74,0,0,1,.74-.74H3.834a.841.841,0,0,0,.818-.737L4.9,34.308a.652.652,0,0,0-.663-.736H2.278a.74.74,0,0,1-.74-.74v-1.16a4.08,4.08,0,0,1,.04-.662,1.287,1.287,0,0,1,.181-.461.738.738,0,0,1,.455-.314,3.247,3.247,0,0,1,.836-.087H4.21a.74.74,0,0,0,.74-.74V27.087A.74.74,0,0,0,4.21,26.346Z" transform="translate(5.298 -26.346)"/></g></g></svg>