<svg xmlns="http://www.w3.org/2000/svg" xmlns:xlink="http://www.w3.org/1999/xlink" width="30" height="30" viewBox="0 0 30 30"><defs><style>.a{fill:#fff;}.b{clip-path:url(#a);}.c{fill:#54cbd9;}</style><clipPath id="a"><circle class="a" cx="15" cy="15" r="15" transform="translate(1219 20)"/></clipPath></defs><g class="b" transform="translate(-1219 -20)"><g transform="translate(1234.484 -1.703)"><g transform="translate(-5.298 26.346)"><path class="c" d="M3.634,26.346H1.476a4.643,4.643,0,0,0-3.557,1.176,4.949,4.949,0,0,0-1.081,3.463v1.454a.7.7,0,0,1-.7.7H-4.6a.7.7,0,0,0-.7.7v2.179a.7.7,0,0,0,.7.7h.745a.7.7,0,0,1,.7.7v8.966a.7.7,0,0,0,.7.7h2.9a.7.7,0,0,0,.7-.7V37.4a.7.7,0,0,1,.7-.7H3.281a.79.79,0,0,0,.769-.692l.231-2.186a.613.613,0,0,0-.623-.692H1.819a.7.7,0,0,1-.7-.7V31.349a3.833,3.833,0,0,1,.038-.622,1.209,1.209,0,0,1,.17-.433.693.693,0,0,1,.427-.3,3.05,3.05,0,0,1,.786-.082H3.634a.7.7,0,0,0,.7-.7V27.042A.7.7,0,0,0,3.634,26.346Z" transform="translate(5.298 -26.346)"/></g></g></g></svg>