<svg xmlns="http://www.w3.org/2000/svg" xmlns:xlink="http://www.w3.org/1999/xlink" width="32" height="32" viewBox="0 0 32 32"><defs><style>.a{fill:#fff;}.b{clip-path:url(#a);}</style><clipPath id="a"><circle class="a" cx="16" cy="16" r="16" transform="translate(-0.066 -0.033)"/></clipPath></defs><g class="b" transform="translate(0.066 0.033)"><g transform="translate(4.549 4.549)"><path class="a" d="M-1.923,28.058c3.049,0,3.41.012,4.613.067a6.328,6.328,0,0,1,2.12.393,3.526,3.526,0,0,1,1.313.854,3.547,3.547,0,0,1,.854,1.313A6.309,6.309,0,0,1,7.37,32.8c.055,1.2.067,1.565.067,4.613s-.012,3.41-.067,4.613a6.309,6.309,0,0,1-.393,2.12,3.532,3.532,0,0,1-.854,1.313,3.547,3.547,0,0,1-1.313.854,6.309,6.309,0,0,1-2.12.393c-1.2.055-1.565.067-4.613.067s-3.41-.012-4.613-.067a6.309,6.309,0,0,1-2.12-.393,3.526,3.526,0,0,1-1.313-.854,3.547,3.547,0,0,1-.854-1.313,6.309,6.309,0,0,1-.393-2.12c-.055-1.2-.067-1.565-.067-4.613s.012-3.41.067-4.613a6.328,6.328,0,0,1,.393-2.12,3.532,3.532,0,0,1,.854-1.313,3.547,3.547,0,0,1,1.313-.854,6.309,6.309,0,0,1,2.12-.393c1.2-.055,1.565-.067,4.613-.067m0-2.057c-3.1,0-3.49.013-4.707.069A8.372,8.372,0,0,0-9.4,26.6a5.6,5.6,0,0,0-2.022,1.317,5.6,5.6,0,0,0-1.317,2.022,8.376,8.376,0,0,0-.531,2.771c-.056,1.218-.069,1.606-.069,4.707s.013,3.49.069,4.707a8.372,8.372,0,0,0,.531,2.771,5.6,5.6,0,0,0,1.317,2.022A5.6,5.6,0,0,0-9.4,48.237a8.373,8.373,0,0,0,2.771.531c1.218.056,1.606.069,4.707.069s3.49-.013,4.707-.069a8.373,8.373,0,0,0,2.771-.531A5.6,5.6,0,0,0,7.578,46.92,5.6,5.6,0,0,0,8.9,44.9a8.376,8.376,0,0,0,.531-2.771c.056-1.218.069-1.606.069-4.707s-.013-3.49-.069-4.707A8.372,8.372,0,0,0,8.9,29.94a5.6,5.6,0,0,0-1.317-2.022A5.6,5.6,0,0,0,5.556,26.6a8.372,8.372,0,0,0-2.771-.531C1.567,26.014,1.178,26-1.923,26" transform="translate(13.341 -26.001)"/><path class="a" d="M-.18,33.3a5.863,5.863,0,0,0-5.863,5.863A5.863,5.863,0,0,0-.18,45.023a5.863,5.863,0,0,0,5.863-5.863A5.863,5.863,0,0,0-.18,33.3m0,9.669a3.806,3.806,0,0,1-3.806-3.806A3.806,3.806,0,0,1-.18,35.356a3.806,3.806,0,0,1,3.806,3.806A3.806,3.806,0,0,1-.18,42.967" transform="translate(11.598 -27.743)"/><path class="a" d="M10.606,32.564a1.37,1.37,0,1,1-1.37-1.37,1.371,1.371,0,0,1,1.37,1.37" transform="translate(8.277 -27.241)"/></g></g></svg>