<svg xmlns="http://www.w3.org/2000/svg" xmlns:xlink="http://www.w3.org/1999/xlink" width="30" height="30" viewBox="0 0 30 30"><defs><style>.a{fill:#fff;}.b{clip-path:url(#a);}.c{fill:#54cbd9;}</style><clipPath id="a"><circle class="a" cx="15" cy="15" r="15" transform="translate(1181 20)"/></clipPath></defs><g class="b" transform="translate(-1181 -20)"><g transform="translate(1198.614 -1.727)"><path class="c" d="M-2.614,27.933c2.864,0,3.2.011,4.334.063a5.945,5.945,0,0,1,1.992.369,3.312,3.312,0,0,1,1.233.8,3.332,3.332,0,0,1,.8,1.233,5.927,5.927,0,0,1,.369,1.992c.052,1.131.063,1.47.063,4.334s-.011,3.2-.063,4.334a5.927,5.927,0,0,1-.369,1.992,3.318,3.318,0,0,1-.8,1.233,3.332,3.332,0,0,1-1.233.8,5.927,5.927,0,0,1-1.992.369c-1.131.052-1.47.063-4.334.063s-3.2-.011-4.334-.063a5.927,5.927,0,0,1-1.992-.369,3.312,3.312,0,0,1-1.233-.8,3.332,3.332,0,0,1-.8-1.233,5.927,5.927,0,0,1-.369-1.992c-.052-1.131-.063-1.47-.063-4.334s.011-3.2.063-4.334a5.945,5.945,0,0,1,.369-1.992,3.318,3.318,0,0,1,.8-1.233,3.332,3.332,0,0,1,1.233-.8A5.927,5.927,0,0,1-6.948,28c1.131-.052,1.47-.063,4.334-.063m0-1.933c-2.913,0-3.279.013-4.422.065a7.866,7.866,0,0,0-2.6.5,5.256,5.256,0,0,0-1.9,1.237,5.265,5.265,0,0,0-1.237,1.9,7.869,7.869,0,0,0-.5,2.6c-.052,1.144-.065,1.509-.065,4.422s.013,3.279.065,4.422a7.866,7.866,0,0,0,.5,2.6,5.256,5.256,0,0,0,1.237,1.9,5.259,5.259,0,0,0,1.9,1.237,7.866,7.866,0,0,0,2.6.5c1.144.052,1.509.065,4.422.065s3.279-.013,4.422-.065a7.866,7.866,0,0,0,2.6-.5,5.256,5.256,0,0,0,1.9-1.237,5.265,5.265,0,0,0,1.237-1.9,7.869,7.869,0,0,0,.5-2.6c.052-1.144.065-1.509.065-4.422S8.1,33.449,8.047,32.3a7.866,7.866,0,0,0-.5-2.6,5.256,5.256,0,0,0-1.237-1.9,5.259,5.259,0,0,0-1.9-1.237,7.866,7.866,0,0,0-2.6-.5C.664,26.013.3,26-2.614,26"/><path class="c" d="M-.535,33.3a5.508,5.508,0,0,0-5.508,5.508A5.508,5.508,0,0,0-.535,44.313a5.508,5.508,0,0,0,5.508-5.508A5.508,5.508,0,0,0-.535,33.3m0,9.084a3.576,3.576,0,0,1-3.575-3.575A3.576,3.576,0,0,1-.535,35.231,3.576,3.576,0,0,1,3.04,38.806,3.575,3.575,0,0,1-.535,42.382" transform="translate(-2.079 -2.079)"/><path class="c" d="M10.44,32.481a1.287,1.287,0,1,1-1.287-1.287,1.288,1.288,0,0,1,1.287,1.287" transform="translate(-6.041 -1.479)"/></g></g></svg>