<svg xmlns="http://www.w3.org/2000/svg" width="23.812" height="31.203" viewBox="0 0 23.812 31.203"><defs><style>.a{fill:#0dbbe8;}</style></defs><path class="a" d="M70.658,17.639a.8.8,0,0,1-.821.767H64.205a.769.769,0,1,1,0-1.534h5.632A.8.8,0,0,1,70.658,17.639Zm-.821,2.176H64.205a.769.769,0,1,0,0,1.534h5.632a.769.769,0,1,0,0-1.534ZM64.146,7.789h1.422V9.117a.823.823,0,0,0,1.643,0V7.789h1.422a.769.769,0,1,0,0-1.534H67.211V4.928a.823.823,0,0,0-1.643,0V6.255H64.146a.769.769,0,1,0,0,1.534ZM63.384,14.7a.8.8,0,0,0,.821.767H76.517a.769.769,0,1,0,0-1.534H64.205A.8.8,0,0,0,63.384,14.7ZM82.267,6.032v24.4a.8.8,0,0,1-.821.767H59.276a.8.8,0,0,1-.821-.767V.767A.8.8,0,0,1,59.276,0H75.808c.032,0,.063,0,.095,0h.011a.861.861,0,0,1,.1.018h0a.837.837,0,0,1,.369.193h.005l0,0,5.632,5.259,0,0h0l0,0h0l0,0h0a.755.755,0,0,1,.2.331h0v0h0v0h0a.722.722,0,0,1,.022.11h0v0h0A.676.676,0,0,1,82.267,6.032Zm-5.632-.773h2.828L76.635,2.619Zm3.989,1.534h-4.81a.8.8,0,0,1-.821-.767V1.534H60.1V29.669H80.625ZM76.517,16.872H73.4a.769.769,0,1,0,0,1.534h3.113a.769.769,0,1,0,0-1.534Zm0,8.33H73.4a.769.769,0,1,0,0,1.534h3.113a.769.769,0,1,0,0-1.534Zm0-5.387H73.4a.769.769,0,1,0,0,1.534h3.113a.769.769,0,1,0,0-1.534Z" transform="translate(-58.455)"/></svg>