<svg xmlns="http://www.w3.org/2000/svg" xmlns:xlink="http://www.w3.org/1999/xlink" width="30" height="30" viewBox="0 0 30 30"><defs><style>.a{fill:#fff;}.b{clip-path:url(#a);}.c{fill:#54cbd9;}</style><clipPath id="a"><circle class="a" cx="15" cy="15" r="15" transform="translate(1143 20)"/></clipPath></defs><g class="b" transform="translate(-1143 -20)"><g transform="translate(1156.373 -5.2)"><path class="c" d="M7.152,30.7A11,11,0,0,0-7.872,26.676,11,11,0,0,0-11.9,41.7,11,11,0,0,0,3.126,45.725,11,11,0,0,0,7.152,30.7ZM2.026,43.819A8.8,8.8,0,0,1-9.993,40.6a8.8,8.8,0,0,1,3.22-12.018A8.9,8.9,0,0,1-.43,27.619,8.657,8.657,0,0,1,5.246,31.8,8.8,8.8,0,0,1,2.026,43.819Zm-.44-8.066-5.759-3.359c-.525-.306-.948-.062-.945.546l.029,6.667c0,.607.431.854.958.55l5.715-3.3A.584.584,0,0,0,1.586,35.753Z" transform="translate(4 4)"/></g></g></svg>